<?xml version="1.0"?><svg version="1.2" baseProfile="tiny-ps" viewBox="0 0 300 300" xmlns="http://www.w3.org/2000/svg" xmlns:xlink="http://www.w3.org/1999/xlink"><title>hmdentalco.com</title><g><g fill="#fdffff" transform="matrix(.1 0 0 -.1 0 300)"><path d="M0 1500V0h3000v3000H0V1500z"/></g><g fill="#daf8f8" transform="matrix(.1 0 0 -.1 0 300)"><path d="M1173 2956c-40-13-94-36-120-51l-48-28-65-66-66-66-41-80-42-81-24-84c-29-98-47-232-47-341v-77l-23-6c-13-3-57-27-98-54l-74-49-42-45c-58-64-86-112-113-192l-23-69 6-91 6-90 37-75 37-75 64-62 64-62 59-31c68-37 154-65 242-81l62-12 154 3 155 3 29-73c36-91 92-174 155-230l48-43 61-29 61-30 59-9c33-6 78-10 100-10h42l66 20 66 21 46 31c137 93 235 251 279 453l16 70 6 148 6 148 60 30c33 17 66 36 74 42 59 47 117 107 143 145l30 46 20 64 20 64v153l-14 46c-23 76-55 130-115 192-141 150-305 212-595 225l-149 7-17 50c-10 28-34 78-54 112l-36 61-51 51-52 52-72 34-72 35-74 5-74 5-72-24zm660-510c18-7 44-27 59-42l27-29 16-44 15-44v-147l-26-98c-14-53-35-122-46-152s-23-71-25-91l-5-37 11-72c6-39 14-110 17-156l6-83-12-67-11-68-25-50-25-51-25-18-24-18-20 11-20 11-4 22c-3 12-10 54-17 92-6 39-23 108-36 155l-24 85-16 17-16 18h-155l-10-12c-5-7-19-42-30-78l-19-65-12-115c-7-63-16-122-20-130l-8-15-26-3-25-3-26 34c-14 18-39 62-55 98l-29 64-18 113-18 113 12 92 11 92-40 82c-23 46-45 100-51 120-5 21-14 56-20 78l-10 40-1 90-1 90 25 50 25 50 44 23 44 22h31c45 0 142-27 199-55 28-14 59-25 69-25h19l70 46c105 70 184 89 251 60zM390 310V60h89l3 137 3 138 24-137 24-138h66l7 38c4 20 17 89 29 152l23 115 1-152 1-153h80v500H631l-7-37c-22-126-54-286-57-289-2-2-17 69-33 159l-29 162-58 3-57 3V310zm410 0V60h80v220h110V60h90l-2 248-3 247-42 3-43 3V350H880v210h-80V310zm450-1V58l94 4 94 3 22 20c13 11 29 34 36 52l14 32v296l-18 35-17 35-35 12-35 12h-77l-78 1V309zm138 180 31-11 7-43c3-24 5-99 3-165l-4-122-19-14-20-14h-56v380h14c7 0 27-5 44-11zm1152-179V60h80v500h-80V310zm-433 223c-4-3-7-30-7-60v-53h-30v-70h28l4-122c3-68 8-130 12-140 4-9 20-21 36-28l28-12 28 4 29 3 3 33 3 32h-49l-6 22c-3 13-6 64-6 115v92l28 3 27 3 3 33 3 32h-61v120h-33c-19 0-37-3-40-7zm-520-143-26-30-7-56-7-56 6-58c4-32 12-70 19-85l12-26 27-15c35-18 73-18 108 0l27 15 12 26c7 14 12 39 12 55v30h-80v-61l-16-6-15-6-11 11c-6 6-13 31-15 56l-5 45 73 3 74 3-3 45c-2 25-8 60-13 77l-11 33-21 15-21 15h-94l-25-30zm101-77 3-33h-61v13c0 6 3 22 6 35l7 23 21-3 21-3 3-32zm122-73V60h90v290h49l3-142 3-143h80v322l-14 16-13 17h-35c-19 0-43-5-53-10l-19-10-6 10-6 10h-79V240zm503 162c-22-17-43-60-43-88v-14h80v19c0 10 7 24 15 31l15 12 15-12 15-12v-56l-30-11c-17-5-44-20-60-31l-29-21-12-39-12-38 7-26c3-14 16-35 28-46l22-20h21c11 0 31 8 45 17l24 17 4-12 4-12h74l-4 143-4 142-14 27c-18 36-43 48-96 48h-43l-22-18zm95-229-3-48-22-3-22-3-7 26-6 26 23 25c12 13 26 24 31 24h9l-3-47z"/></g><g fill="#a2dfe1" transform="matrix(.1 0 0 -.1 0 300)"><path d="M1175 2951c-273-78-445-381-445-783v-87l-44-20c-70-30-159-95-209-151l-47-52-29-62-29-61-12-62-11-62 11-68 11-68 32-64 31-64 61-61 60-61 70-37c39-20 101-45 138-57l68-21 107-11 107-12 97 9 96 10 27-71c65-171 175-285 323-334l61-21h148l58 20c82 28 132 60 193 122 93 94 148 200 188 363l17 70 5 157 4 157 32 12c17 7 61 32 98 56l67 44 41 46 40 46 30 61 29 61 12 63 12 64-13 70-12 69-34 69-34 68-68 63-67 64-70 37-71 37-85 24-85 25-114 11c-63 6-141 12-173 14l-59 2-19 54c-28 80-77 157-137 216l-52 52-54 26c-66 32-125 47-191 46h-50l-60-18zm696-516 37-24 23-48 24-48-1-100-1-100-22-80c-12-43-35-116-52-162l-30-82 15-93c8-51 17-124 20-163l5-70-9-69-10-69-21-46c-11-25-32-58-46-73l-27-28h-45l-11 19c-5 11-19 68-31 128-21 109-53 217-72 241l-10 13-80-3-80-3-23-65c-23-68-44-192-44-263v-43l-16-22-15-22h-47l-28 33c-15 17-40 59-55 92l-28 60-17 84-16 84 4 135 5 135-34 66c-42 84-60 144-78 254l-14 88 9 54c5 29 18 72 30 94l21 42 32 19c18 11 47 23 66 26l33 7 57-13c31-7 85-25 120-41s73-29 85-29h21l50 36c85 62 162 87 235 77l35-5 36-23zM400 310V60h70v167c0 91 2 164 4 162 3-2 17-70 31-149 14-80 28-153 31-162l5-18h56l29 163 29 162 3-162 2-163h80l-2 248-3 247H635l-23-120c-12-66-28-145-34-175l-12-55-23 125c-13 69-28 149-34 178l-10 52h-99V310zm400 1V60h80v230h109l3-112 3-113 38-3 37-3v501h-68l-6-16c-3-9-6-56-6-105v-89H881l-3 103-3 102-37 3-38 3V311zm458 243-8-7V60h151l34 14 34 14 18 34 18 33 3 140 3 140-13 39-13 39-26 20-27 19-83 5-84 5-7-8zm152-74 20-20V157l-17-19-16-18h-67v380h60l20-20zm1134 67c-2-7-3-118-2-247l3-235 38-3 37-3v501h-71l-5-13zm-434-66v-59l-20-5-20-5v-52h40V104l15-21 15-21 30-7 30-6 20 6 21 7-3 26-3 26-25 6-25 6-3 117-3 117h62l-3 28-3 27-27 3-28 3v119h-70v-59zm-503-72c-26-15-44-57-52-119l-6-55 10-65 11-64 25-26 25-25h90l26 26 25 26 6 42 6 42-39-3-39-3-5-30-5-30-19-3-19-4-8 14c-5 7-9 34-9 61v47h143l-7 62-6 62-27 28-27 28h-40c-23 0-49-5-59-11zm67-55 16-6v-68h-60v21c0 19 16 59 25 59 2 0 10-3 19-6zm146-114V60h70v280l26 12 25 12 10-15 9-14V60h70v321l-10 20-11 19h-65l-20-15c-25-19-34-19-34 0v15h-70V240zm490 153-29-28-3-30-3-30 33-3 33-3 10 31 11 31 22-3 21-3 3-35 3-35-54-28-54-28-14-26-14-25V98l28-24c36-30 48-30 86 2l31 26V60h75l-3 122c-1 68-5 137-7 155l-6 32-30 25-31 26h-78l-30-27zm96-260-6-14-22 3-23 3-3 27-3 28 28 26 28 26 3-42c2-23 1-49-2-57z"/></g><g fill="#60c2c4" transform="matrix(.1 0 0 -.1 0 300)"><path d="m1233 2959-62-8-68-32-68-32-81-81-80-81-42-85-42-85-19-78c-11-43-25-126-31-185l-11-107 6-51 6-52-55-25c-75-35-132-75-191-136-63-65-90-110-115-190l-20-63v-114l15-59 16-60 32-54 32-53 56-52 55-52 70-36c38-20 103-47 144-59l75-23 194-2 193-1 28-72c38-97 80-160 153-227l61-57 54-24 53-23 69-12 68-12 62 12c78 14 151 48 217 101l53 41 50 71 49 71 32 82 32 81 18 105 18 105 1 112v113l69 35 70 35 66 61 65 61 38 76 37 76v222l-39 79-39 78-63 62-63 63-93 46-93 46-90 21-90 22-149 6-149 6-18 53c-54 160-172 286-304 325-69 21-110 25-182 16zm611-503 32-14 31-36 30-37 12-38 11-38v-148l-24-100c-14-55-38-134-54-176l-29-77 14-78 15-79 1-130 2-130-17-56c-21-68-55-119-91-139l-28-15-24 27-23 27-7 53c-8 64-48 223-69 272l-15 36h-149l-10-12c-5-7-20-44-31-83l-21-70-14-119-13-119-19-14-18-13-20 6c-48 14-104 111-136 230l-20 79-6 95-6 95 10 58 9 58-38 77c-21 42-48 113-60 157l-22 80-1 100v100l21 40c39 74 89 105 167 105 51 0 134-23 198-56 61-31 72-30 118 6 20 16 66 43 101 60l64 30h96l33-14zM400 305V60h70l2 183 3 182 29-160c15-88 30-170 33-183l5-23 26 3 26 3 31 170 30 170 5-170 5-170 33-3 32-3v492l-47-3-47-3-33-174c-18-95-34-175-36-178-3-2-7 16-11 39-4 24-18 105-33 181l-26 137h-97V305zm402 3 3-243 32-3 32-3 3 113 3 113 63 3 62 3V60h70v490h-69l-3-102-3-103H875l-3 103-3 102h-69l2-242zm450 0 3-243h82l82 1 28 20c16 12 34 32 40 45l13 24v316l-14 28-15 27-26 12-26 12h-169l2-242zm160 175 18-16V159l-10-20-11-19h-89v380h73l19-17zm1138-178V60h70v490h-70V305zm-433 229c-4-4-7-34-7-66v-58h-40v-42l20-5 20-5V100l20-20 20-20h80v61l-10-6-11-7-14 12-15 12v228h50v50h-49l-3 63-3 62-25 3c-14 2-29 0-33-4zm-504-126-22-11-15-32-16-33V149l14-34 14-33 20-11c12-6 38-11 59-11h39l21 15 22 16 11 37c14 52 14 52-25 52h-35v-19c0-11-7-27-16-35l-15-16-20 10-19 11v109h142l-7 58-7 57-14 23c-25 39-85 52-131 30zm80-81 9-28-6-14-5-15h-61v29c0 16 3 37 6 46l7 16 20-3 20-3 10-28zm230 73-33-20v30h-70V60h70v290l24 6 25 6 10-7 11-6V60h70v327l-18 16c-24 22-50 21-89-3zm410 5-31-13-11-21c-6-11-11-29-11-40v-21h69l3 22 3 23 19 3 20 4 13-18c7-10 13-27 13-39v-21l-50-23-50-23-20-25-20-26v-87l20-20 20-20h59l20 25 20 26 3-23 3-23 33-3 32-3v262l-14 34-14 34-31 15c-36 19-56 20-98 1zm87-218v-44l-19-17-18-16-17 6-16 6v67l26 20c15 12 31 21 35 21h9v-43z"/></g><g fill="#13aeb0" transform="matrix(.1 0 0 -.1 0 300)"><path d="M1183 2945c-70-19-118-45-182-95l-52-41-46-62c-58-78-104-178-133-287l-22-85-5-151-6-151-51-22c-28-12-81-44-118-71l-68-50-44-60-45-61-22-57-21-57-1-80v-80l16-56 17-56 40-60 39-60 61-47 60-47 72-33c40-19 105-42 143-52l70-19 182 1h182l21-60c12-34 36-85 53-115l31-55 57-56 57-56 68-35 69-34h231l76 37 75 38 66 70 66 70 41 83 40 83 20 79 20 79 10 116 11 115-7 52-6 53 48 20c26 12 76 41 111 66l63 45 40 53c21 28 51 79 66 111l28 60v200l-37 79-37 78-67 67-68 66-62 33c-75 40-154 68-248 88l-70 16-141 5-142 6-12 41c-7 23-26 68-42 101l-31 60-66 66-66 66-59 27-60 28-80 4-81 4-52-15zm632-476c22-6 54-22 71-34l31-24 24-48 23-48v-95l-1-95-22-83c-12-45-35-121-52-168l-31-85 17-106 17-105-4-117-5-116-22-56-21-55-31-32-31-32h-48l-14 23-14 22-22 115c-13 63-32 142-44 175l-21 60-76 3-76 3-10-13c-26-33-52-145-62-275l-8-93-18-20-18-20h-45l-30 34c-37 42-76 122-98 201l-17 60-2 175-2 175-31 60c-16 33-41 94-53 135l-24 75v230l25 45 25 44 34 23 34 23h136l63-24c35-13 79-30 99-39l36-16 69 45c77 51 100 62 159 74 22 4 42 8 45 9 3 0 23-4 45-10zM400 311V70h70v187c0 102 2 184 4 182s19-86 37-187l32-182h45l10 47c6 27 20 104 33 173 12 69 25 132 30 140l8 15 1-187V70h60v480h-89l-10-52c-6-29-20-105-31-168-12-63-25-124-29-135l-8-20-23 125c-12 69-28 152-34 185l-12 60-47 3-47 3V311zm410-1V70h59l3 113 3 112h120l3-112 3-113h59v480h-60V340H870v210h-60V310zm450 0V68l91 4 91 3 23 27 24 28 6 44c4 24 5 105 4 180l-4 136-27 27-27 27-91 4-90 4V310zm167 160 13-25-2-148-3-149-24-19-23-19h-68v391l47-3 48-3 12-25zm1123-160V70h60v480h-60V310zm-440 160v-60h-30v-39l14-8 14-8 4-128 3-129 24-19 23-19h68v49l-22 3-23 3-3 122-3 122 23 3 23 3 3 23 3 22h-51v120h-70v-60zm-490-68-35-17-12-35-12-35v-70l-1-70 10-37 11-37 26-21 26-20h69l29 29 29 29v62h-59l-3-26-3-27-17-11-18-11-16 17-17 17-5 50-5 51h143v92l-16 33-16 34-30 10c-39 14-37 14-78-7zm64-48 16-15v-69h-82l7 38 6 37 17 13c20 15 17 15 36-4zm247 45-34-21-9 16-9 16h-59V70h70v281l23 8c12 5 28 6 35 4l12-5V70h70v310l-20 20c-25 25-37 25-79-1zm378-18-29-29v-42h59l7 23c12 38 34 46 58 21l16-15v-57l-55-27-55-27-15-28c-8-16-15-42-15-58v-29l21-27 20-26h48l25 26 24 26 7-21 6-21h54l-3 127c-3 152-6 166-34 193l-22 20h-88l-29-29zm100-257c-6-8-20-14-30-14h-18l-11 20-10 20 6 24 6 25 31 20 32 20 3-50 3-51-12-14z"/></g><g fill="#049ea6" transform="matrix(.1 0 0 -.1 0 300)"><path d="M1193 2945c-229-64-389-276-438-577l-15-93v-200l-85-44-84-44-52-51c-64-62-110-133-134-205l-17-53 4-93 4-93 37-75 37-76 66-60 65-60 82-40 82-40 80-17 80-17 135-1c74 0 151 3 171 7l37 7 17-52c9-28 30-77 45-109l29-56 52-57 52-58 53-33c29-19 76-41 105-49l53-16h142l62 21 63 21 59 44 59 43 44 57c78 99 132 231 156 384l11 65v251l34 12c52 19 146 84 198 137l46 48 32 61 31 61 11 66 11 67-12 63-11 63-26 53c-83 170-252 283-493 329-41 8-134 17-207 21l-132 6-23 61c-29 81-89 174-145 226l-45 42-64 30-64 29-73 5-73 4-52-15zm652-484 41-18 26-31c14-17 32-48 40-69l13-38-1-95-1-95-17-65c-21-79-48-160-71-218l-18-44 11-51c7-29 17-104 23-168l11-117-16-78c-20-93-48-156-83-184l-26-20h-44l-17 19-17 18-9 54c-25 147-39 205-67 272l-16 37h-148l-15-35c-26-63-44-147-52-252l-9-102-13-16-12-15h-55l-28 27c-50 50-94 155-115 273l-12 65v99c1 54 4 111 7 126l6 28-31 63c-18 34-43 96-57 138l-24 76-6 106-6 106 17 50 17 50 27 25c15 14 38 31 52 39l25 13 67-1 66-1 88-36c49-20 95-36 102-36 8 0 35 15 61 34 79 58 143 83 216 85l30 1 40-19z"/></g></g></svg>
